<?xml version="1.0" encoding="UTF-8" standalone="no"?><!DOCTYPE svg PUBLIC "-//W3C//DTD SVG 1.1//EN" "http://www.w3.org/Graphics/SVG/1.1/DTD/svg11.dtd"><svg width="100%" height="100%" viewBox="0 0 256 256" version="1.1" xmlns="http://www.w3.org/2000/svg" xmlns:xlink="http://www.w3.org/1999/xlink" xml:space="preserve" xmlns:serif="http://www.serif.com/" style="fill-rule:evenodd;clip-rule:evenodd;stroke-linejoin:round;stroke-miterlimit:2;"><g><path d="M0,0l0,127.874l85.073,-127.874l-85.073,0Zm0,256l85.073,0l-85.073,-128.092l0,128.092Z" style="fill:#f05e00;fill-rule:nonzero;"/><path d="M256,76.465l0,-76.465l-76.121,0l-84.963,127.73l0.021,0.027l-0.021,0.028l0.037,0l84.926,128.215l76.121,0l0,-76.208l0,-0.075l-68.74,0l68.74,-103.252Z" style="fill:#ffaf00;fill-rule:nonzero;"/></g><g><path d="M128,32c-53.019,0 -96,42.98 -96,96c0,53.019 42.981,96 96,96c53.019,0 96,-42.981 96,-96c0,-53.02 -42.981,-96 -96,-96m0,5.76c12.185,0 24.002,2.385 35.124,7.089c5.346,2.261 10.502,5.06 15.326,8.319c4.78,3.229 9.274,6.938 13.359,11.023c4.085,4.085 7.794,8.579 11.023,13.359c3.259,4.824 6.058,9.98 8.319,15.326c4.704,11.122 7.089,22.939 7.089,35.124c0,12.185 -2.385,24.002 -7.089,35.124c-2.261,5.345 -5.06,10.502 -8.319,15.326c-3.229,4.78 -6.938,9.274 -11.023,13.359c-4.085,4.085 -8.579,7.794 -13.359,11.023c-4.824,3.259 -9.98,6.058 -15.326,8.319c-11.122,4.704 -22.939,7.089 -35.124,7.089c-12.185,0 -24.002,-2.385 -35.124,-7.089c-5.346,-2.261 -10.502,-5.06 -15.326,-8.319c-4.78,-3.229 -9.274,-6.938 -13.359,-11.023c-4.085,-4.085 -7.794,-8.579 -11.023,-13.359c-3.259,-4.824 -6.058,-9.981 -8.319,-15.326c-4.704,-11.122 -7.089,-22.939 -7.089,-35.124c0,-12.185 2.385,-24.002 7.089,-35.124c2.261,-5.346 5.06,-10.502 8.319,-15.326c3.229,-4.78 6.938,-9.274 11.023,-13.359c4.085,-4.085 8.579,-7.794 13.359,-11.023c4.824,-3.259 9.98,-6.058 15.326,-8.319c11.122,-4.704 22.939,-7.089 35.124,-7.089" style="fill:#32373c;fill-rule:nonzero;"/><path d="M198.203,89.619c0.343,2.547 0.537,5.281 0.537,8.225c0,8.115 -1.52,17.241 -6.085,28.654l-24.433,70.645c23.784,-13.866 39.778,-39.633 39.778,-69.146c0,-13.909 -3.554,-26.985 -9.797,-38.378m-68.797,45.375l-24.007,69.746c7.169,2.11 14.749,3.26 22.601,3.26c9.316,0 18.253,-1.608 26.568,-4.536c-0.214,-0.342 -0.411,-0.705 -0.574,-1.102l-24.588,-67.368Zm52.601,-11.032c0,-9.89 -3.553,-16.735 -6.595,-22.062c-4.056,-6.593 -7.859,-12.171 -7.859,-18.763c0,-7.353 5.576,-14.198 13.435,-14.198c0.355,0 0.691,0.043 1.035,0.064c-14.233,-13.041 -33.196,-21.003 -54.023,-21.003c-27.95,0 -52.537,14.341 -66.842,36.057c1.878,0.059 3.648,0.097 5.148,0.097c8.366,0 21.322,-1.017 21.322,-1.017c4.311,-0.253 4.82,6.083 0.512,6.592c0,0 -4.335,0.508 -9.155,0.76l29.131,86.655l17.51,-52.505l-12.464,-34.15c-4.31,-0.252 -8.39,-0.76 -8.39,-0.76c-4.313,-0.254 -3.808,-6.845 0.507,-6.592c0,0 13.209,1.017 21.069,1.017c8.366,0 21.324,-1.017 21.324,-1.017c4.313,-0.253 4.82,6.083 0.51,6.592c0,0 -4.34,0.508 -9.156,0.76l28.912,85.995l8.253,-26.151c3.666,-11.428 5.816,-19.526 5.816,-26.371m-134.007,4.035c0,31.664 18.4,59.031 45.089,71.997l-38.162,-104.554c-4.439,9.948 -6.927,20.959 -6.927,32.557" style="fill:#32373c;fill-rule:nonzero;"/></g></svg>